# xmcd
#
# Track frame offsets: 
#        150
#        10729
#        24524
#        35268
#        48593
#        61368
#        72125
#        85256
#        95443
#        107722
#        121830
#        134021
#        145801
#        157222
#        170841
#        185576
#        196580
#        208663
#        220572
#        230243
#
# Disc length: 3239 seconds
#
# Revision: 3
# Processed by: cddbd v1.5.2PL0 Copyright (c) Steve Scherf et al.
# Submitted via: ExactAudioCopyFreeDBPlugin 1.0
#
DISCID=200ca514
DTITLE=Chuck Berry - The Ultimate Collection [CD1]
DYEAR=2007
DGENRE=Rock
TTITLE0=Maybelline
TTITLE1=Wee Wee Hours
TTITLE2=Thirty Days
TTITLE3=No Money Down
TTITLE4=Down Bound Train
TTITLE5=Roll Over Beethoven
TTITLE6=Too Much Monkey Business
TTITLE7=Brown Eyed Handsome Man
TTITLE8=You Can't Catch Me
TTITLE9=Havana Moon
TTITLE10=School Day
TTITLE11=Oh Baby Doll
TTITLE12=Rock And Roll Music
TTITLE13=Sweet Little Sixteen
TTITLE14=Reelin' And Rockin'
TTITLE15=House Of Blue Lights
TTITLE16=Johnny B. Goode
TTITLE17=Around And Around
TTITLE18=Beautiful Delilah
TTITLE19=Carol
EXTD=YEAR: 2007
EXTT0=
EXTT1=
EXTT2=
EXTT3=
EXTT4=
EXTT5=
EXTT6=
EXTT7=
EXTT8=
EXTT9=
EXTT10=
EXTT11=
EXTT12=
EXTT13=
EXTT14=
EXTT15=
EXTT16=
EXTT17=
EXTT18=
EXTT19=
PLAYORDER=
